<?xml version="1.0" encoding="UTF-8" standalone="no"?>
<!-- Created with Inkscape (http://www.inkscape.org/) -->

<svg
   xmlns:dc="http://purl.org/dc/elements/1.1/"
   xmlns:cc="http://creativecommons.org/ns#"
   xmlns:rdf="http://www.w3.org/1999/02/22-rdf-syntax-ns#"
   xmlns:svg="http://www.w3.org/2000/svg"
   xmlns="http://www.w3.org/2000/svg"
   xmlns:sodipodi="http://sodipodi.sourceforge.net/DTD/sodipodi-0.dtd"
   xmlns:inkscape="http://www.inkscape.org/namespaces/inkscape"
   width="96.294594mm"
   height="25.093859mm"
   viewBox="0 0 341.20132 88.915246"
   id="svg2"
   version="1.1"
   inkscape:version="0.91 r"
   sodipodi:docname="aerosec.svg">
  <defs
     id="defs4" />
  <sodipodi:namedview
     id="base"
     pagecolor="#ffffff"
     bordercolor="#666666"
     borderopacity="1.0"
     inkscape:pageopacity="0.0"
     inkscape:pageshadow="2"
     inkscape:zoom="0.35"
     inkscape:cx="174.17209"
     inkscape:cy="4.4576218"
     inkscape:document-units="px"
     inkscape:current-layer="layer1"
     showgrid="false"
     fit-margin-top="0"
     fit-margin-left="0"
     fit-margin-right="0"
     fit-margin-bottom="0"
     inkscape:window-width="1920"
     inkscape:window-height="1058"
     inkscape:window-x="1920"
     inkscape:window-y="0"
     inkscape:window-maximized="1" />
  <metadata
     id="metadata7">
    <rdf:RDF>
      <cc:Work
         rdf:about="">
        <dc:format>image/svg+xml</dc:format>
        <dc:type
           rdf:resource="http://purl.org/dc/dcmitype/StillImage" />
        <dc:title></dc:title>
      </cc:Work>
    </rdf:RDF>
  </metadata>
  <g
     inkscape:label="Layer 1"
     inkscape:groupmode="layer"
     id="layer1"
     transform="translate(-206.5422,-447.90458)">
    <g
       id="layer1-2"
       inkscape:label="Layer 1"
       transform="translate(26.823247,272.36408)">
      <path
         sodipodi:nodetypes="scsssccsssssssscsssssssssssssssssssssscssssssccssssssscssssssssssssscsssscsssssssssscssscssssscssssssssssscsssssssssssssssssscscsssssccssssssssssssssscssssssssssss"
         inkscape:connector-curvature="0"
         id="path3417"
         d="m 344.30525,262.67214 c 0.37644,-0.98098 -0.17111,-2.49365 -1.21677,-3.36148 -1.04568,-0.86782 -1.66499,-2.81361 -1.37627,-4.32397 0.45672,-2.38914 -0.14691,-2.8382 -4.6435,-3.45453 -2.84265,-0.38962 -6.13377,-1.07884 -7.31361,-1.53159 -1.65438,-0.63484 -1.95726,-0.33351 -1.32383,1.31716 0.82354,2.14616 -3.52608,5.46792 -6.42473,5.5053 -0.97896,0.0126 1.01406,-2.50463 1.45054,-5.19429 0.50029,-3.08292 0.037,-4.64222 -1.89974,-6.395 -2.54602,-2.30413 -2.55279,-2.29529 -1.12897,1.4768 1.83265,4.85525 0.0487,7.22103 -6.84469,9.07723 -6.15695,1.65789 -9.31808,-0.34748 -3.65801,-2.3206 2.04973,-0.71453 4.00881,-2.3313 4.35352,-3.59278 2.14042,-7.83316 2.00626,-8.83772 -1.98035,-14.82803 -2.21955,-3.33512 -4.91022,-7.50425 -5.97926,-9.26474 -1.77034,-2.91534 -15.30358,-10.75826 -19.01052,-11.01716 -0.85017,-0.0594 -2.95202,-0.44022 -4.67077,-0.8463 -1.71875,-0.40609 -11.5625,-1.28016 -21.875,-1.94239 -33.14889,-2.12868 -38.64109,-2.92928 -55.14908,-8.03908 -9.089,-2.81335 -18.37848,-10.62465 -22.39274,-18.8295 -4.55256,-9.3051 -3.6598,-13.17585 1.24923,-5.41634 4.18648,6.6174 14.621,14.09613 22.40091,16.0554 2.82792,0.71217 6.43516,1.83879 8.01609,2.50359 3.83672,1.61339 20.99282,3.35455 48.37559,4.90961 23.70627,1.34626 29.00399,2.30891 38.125,6.92766 7.19821,3.64508 8.59791,5.26457 15.6606,18.11967 6.8428,12.45488 10.15037,16.25554 17.57379,20.19366 5.20631,2.76193 5.56205,2.79458 7.65416,0.70248 2.95276,-2.95277 1.06899,-5.80926 -5.28082,-8.00762 -5.96886,-2.06647 -10.38699,-5.99091 -12.60666,-11.19794 -1.42332,-3.33893 -1.39185,-4.94469 0.20828,-10.625 1.03675,-3.68039 2.23329,-9.22286 2.65896,-12.31661 0.70662,-5.13561 0.59376,-5.47574 -1.29717,-3.90944 -1.8819,1.55881 -2.07114,1.13052 -2.07114,-4.6875 0,-7.36835 1.52095,-8.14805 4.56566,-2.34056 2.35863,4.49886 2.77529,13.5909 1.16333,25.38514 -1.02807,7.52193 -1.00769,7.59561 3.04131,11.00263 3.11175,2.61836 5.14449,3.34062 8.5905,3.05235 l 4.5142,-0.37762 0.34499,-19.8337 c 0.30188,-17.35657 0.10675,-19.74228 -1.5625,-19.10173 -2.45295,0.94128 -2.41562,-0.81298 0.12375,-5.81415 3.77333,-7.43144 4.3571,-7.63033 7.28016,-2.48043 4.29534,7.56762 4.72224,9.25958 2.23115,8.84272 -1.90788,-0.31926 -2.21473,1.05989 -2.56146,11.51229 -0.21667,6.53125 -0.0312,15.39062 0.41198,19.6875 0.80179,7.77237 0.82628,7.81248 4.76893,7.80783 5.555,-0.007 11.68764,-4.06333 12.61047,-8.34191 0.41858,-1.94063 0.191,-5.49346 -0.50571,-7.89517 -2.23272,-7.69663 -1.5654,-18.87958 1.41774,-23.75825 2.44417,-3.99724 2.75999,-4.15914 3.65747,-1.875 1.30837,3.32981 1.41687,10.625 0.15803,10.625 -0.55,0 -1.675,-0.675 -2.5,-1.5 -2.39131,-2.39132 -1.88589,3.73702 1,12.125 1.375,3.99651 2.4979,8.72519 2.49533,10.50819 -0.009,5.9684 -4.56342,11.38667 -12.53319,14.90909 -8.1267,3.59178 -9.7231,5.62533 -6.75,8.59842 5.25767,5.25769 19.3568,-5.35834 26.93331,-20.27959 10.48192,-20.64321 19.1455,-24.32325 61.72955,-26.22094 24.62006,-1.09716 36.51359,-2.57076 45.68476,-5.6603 12.7032,-4.2794 18.60405,-8.33494 26.13818,-17.96425 4.91032,-6.27584 5.15431,-2.84917 0.45805,6.43283 -8.54526,16.8894 -25.01466,22.93996 -70.66845,25.96231 -27.40185,1.81405 -29.9043,2.12021 -35.36254,4.32644 -1.375,0.55577 -4.284,1.67973 -6.46444,2.49768 -4.55798,1.70984 -10.18385,7.54707 -17.1848,17.83044 -4.61303,6.77588 -4.79461,7.38829 -3.15015,10.62501 0.95978,1.88907 3.44478,4.96683 5.52222,6.83948 l 3.77717,3.40481 -4.375,-0.74462 c -6.85521,-1.16675 -10.35226,-3.87184 -9.66347,-7.475 0.36682,-1.91895 0.063,-2.88516 -0.81291,-2.58533 -0.76923,0.26332 -1.39862,2.53598 -1.39862,5.05037 0,2.51437 1.77069,5.96019 1.31131,5.95974 -2.45683,-0.002 -6.93631,-3.1628 -6.93631,-5.02592 0,-1.89396 -0.79544,-1.98711 -7.5,-0.87828 -7.09275,1.17302 -7.5,1.43107 -7.5,4.75239 0,1.93162 -0.5625,3.51203 -1.25,3.51203 -0.6875,0 -1.25,1.125 -1.25,2.5 0,2.09419 -0.83334,2.5 -5.13374,2.5 -3.93285,0 -4.97364,-0.41723 -4.4493,-1.78361 z m -60.2305,-8.0747 c -1.13581,-0.71977 0.29632,-1.36108 4.375,-1.95917 8.12994,-1.19213 15.08173,-4.46271 20.75104,-9.76262 l 4.6875,-4.38208 0,5.33733 c 0,4.16244 -0.62178,5.74472 -2.82463,7.18809 -5.62141,3.68328 -23.15492,6.00805 -26.98891,3.57845 z m 118.45938,0.58811 c -0.28647,-0.28611 0,0 -4.27084,-0.99616 -6.36811,-1.48534 -11.58524,-4.31878 -12.52236,-8.58545 -1.12665,-5.12962 0.87381,-7.12078 3.93907,-3.92076 5.48265,5.72367 18.2847,11.49471 25.60331,11.54171 2.38269,0.0153 2.60417,0.26201 1.10498,1.23086 -1.83124,1.18344 -13.85416,0.7298 -13.85416,0.7298 z M 259.79962,251.0436 c -2.59252,-0.27054 -4.38178,-1.0289 -3.97613,-1.68526 0.40565,-0.65635 3.66938,-0.10392 4.41293,-0.10382 3.70376,4.6e-4 22.5192,-5.06913 34.27687,-9.06705 10.33114,-3.51284 16.875,-4.82472 16.875,-3.383 0,1.9992 -5.98336,7.46444 -10.94118,9.99373 -8.41844,4.29478 -24.28951,5.95241 -40.64749,4.2454 z m 151.82904,-0.48407 c -9.64982,-1.60569 -22.32371,-8.93571 -22.32371,-12.91106 0,-2.31028 3.70845,-1.61734 20.43539,3.81842 6.99989,2.27476 16.28114,4.75277 20.625,5.50668 8.01275,1.3907 11.88956,2.08753 14.14795,2.54301 0.6875,0.13864 -1.28125,0.70248 -4.375,1.25297 -7.2431,1.28881 -20.06981,1.19431 -28.50963,-0.21002 z m -178.07311,-6.62506 c -9.19985,-2.4746 -8.50225,-3.22872 2.98678,-3.22872 5.81389,0 13.64202,-0.79429 17.39584,-1.76508 15.29919,-3.95659 39.00363,-7.19516 46.38979,-6.33791 7.66652,0.8898 11.30719,3.10299 5.10438,3.10299 -1.98191,0 -8.34324,1.43998 -14.13626,3.19996 -22.26875,6.76546 -44.1872,8.6744 -57.74053,5.02876 z m 190.95774,-0.66022 c -5.5,-1.25568 -13.65625,-3.43929 -18.125,-4.85248 -4.46875,-1.41319 -9.8125,-2.9744 -11.875,-3.46937 -3.55347,-0.85277 -3.42246,-0.95665 2.5,-1.98223 3.4375,-0.59526 9.625,-0.76022 13.75,-0.36656 8.92731,0.85195 32.86351,5.29299 34.72337,6.44245 0.71989,0.44491 7.54538,1.16056 15.16775,1.59032 13.67833,0.7712 13.79374,0.80332 8.85888,2.46543 -8.17165,2.75229 -33.27855,2.84849 -45,0.17244 z m -204.68232,-8.83474 c -5.47365,-1.39408 -19.15452,-8.10173 -20.29806,-9.95201 -0.53469,-0.86515 0.28537,-0.86629 2.55452,-0.004 8.2367,3.13159 27.10846,3.78141 54.34779,1.87139 28.81932,-2.02081 42.42398,-1.34423 48.12853,2.39353 1.691,1.10799 3.07454,2.16206 3.07454,2.34239 0,0.18033 -5.48438,0.11495 -12.1875,-0.14528 -7.46775,-0.28986 -17.27031,0.31735 -25.3125,1.56801 -15.98217,2.48542 -43.91176,3.55447 -50.30732,1.92559 z m 214.68232,-1.40983 c -10.66534,-1.48123 -22.20345,-2.27261 -29.54307,-2.02631 -8.85917,0.2973 -11.89382,0.0152 -11.47848,-1.0672 1.02977,-2.68357 21.07242,-5.80815 31.64655,-4.9336 39.69375,3.28295 63.49864,3.11312 73.05771,-0.52124 7.41733,-2.82006 4.3795,-0.0804 -6.0738,5.47769 -11.84836,6.29983 -28.11486,7.16687 -57.60891,3.07066 z m -137.5,-8.62983 c -5.41221,-1.94292 -10.94159,-2.26001 -41.25,-2.36559 -39.59074,-0.13791 -48.09242,-1.26928 -59.15242,-7.87175 -3.76061,-2.24497 -9.2655,-7.14977 -12.23307,-10.89955 -5.85534,-7.39872 -6.27318,-9.93324 -0.78897,-4.78574 4.82194,4.5259 17.18078,10.43027 25.29946,12.08668 9.24672,1.88655 34.0227,3.84206 49.375,3.89706 10.88572,0.039 24.74822,1.75626 35.81982,4.43732 3.24193,0.78506 12.90625,8.05917 10.43018,7.85055 -0.6875,-0.0579 -4.0625,-1.11497 -7.5,-2.34898 z m 101.74204,-0.32811 c 5.82451,-6.39352 20.26478,-9.08064 55.13296,-10.25943 12.71875,-0.42998 27.50969,-1.54493 32.86874,-2.47767 11.39108,-1.9826 24.74338,-7.85495 30.72555,-13.51312 3.82311,-3.61605 4.06895,-3.69734 2.61816,-0.86577 -3.17982,6.20627 -9.90066,13.20558 -16.52528,17.21 -11.05703,6.68371 -19.87801,7.84258 -58.31607,7.66137 -18.50479,-0.0872 -34.32476,0.26147 -35.15551,0.7749 -0.83075,0.51343 -3.27224,1.35698 -5.42553,1.87455 -2.15328,0.51758 -5.04006,1.3772 -6.41506,1.91028 -2.23215,0.86538 -2.17944,0.61734 0.49204,-2.31511 z"
         style="fill:#000000" />
    </g>
  </g>
</svg>
